<?xml version="1.0" standalone="no"?>
<!DOCTYPE svg PUBLIC "-//W3C//DTD SVG 1.1//EN"
  "http://www.w3.org/Graphics/SVG/1.1/DTD/svg11.dtd">
<!-- Created with matplotlib (http://matplotlib.sourceforge.net/) -->
<svg width="585pt" height="441pt" viewBox="0 0 585 441"
   xmlns="http://www.w3.org/2000/svg"
   xmlns:xlink="http://www.w3.org/1999/xlink"
   version="1.1"
   id="svg1">
<g id="figure1">
<g id="patch1">
<path style="fill: #ffffff; stroke: #ffffff; stroke-width: 1.000000; stroke-linejoin: round; stroke-linecap: square;  opacity: 1.000000"  d="M0.000000 441.000000L585.000000 441.000000L585.000000 0.000000
L0.000000 0.000000L0.000000 441.000000"/>
</g>
<g id="axes1">
<g id="patch2">
<path style="fill: #ffffff; opacity: 1.000000"  d="M73.125000 396.900000L526.500000 396.900000L526.500000 44.100000
L73.125000 44.100000L73.125000 396.900000"/>
</g>
<g id="line2d1">
<defs><path id="m0305eeba35459913353b7b808f2b84a1" d="M0.000000 1.500000C0.397805 1.500000 0.779370 1.341951 1.060660 1.060660
C1.341951 0.779370 1.500000 0.397805 1.500000 0.000000
C1.500000 -0.397805 1.341951 -0.779370 1.060660 -1.060660
C0.779370 -1.341951 0.397805 -1.500000 0.000000 -1.500000
C-0.397805 -1.500000 -0.779370 -1.341951 -1.060660 -1.060660
C-1.341951 -0.779370 -1.500000 -0.397805 -1.500000 0.000000
C-1.500000 0.397805 -1.341951 0.779370 -1.060660 1.060660
C-0.779370 1.341951 -0.397805 1.500000 0.000000 1.500000z"/></defs>
<defs>
  <clipPath id="pc3c5e41676658680e7b95047b5791c8e">
<rect x="73.125000" y="44.100000" width="453.375000" height="352.800000"/>
  </clipPath>
</defs><g clip-path="url(#pc3c5e41676658680e7b95047b5791c8e)"><use style="fill: #000000; stroke: #000000; stroke-width: 0.500000; stroke-linejoin: round; stroke-linecap: butt;  opacity: 1.000000" xlink:href="#m0305eeba35459913353b7b808f2b84a1" x="148.687500" y="368.868333"/>
<use style="fill: #000000; stroke: #000000; stroke-width: 0.500000; stroke-linejoin: round; stroke-linecap: butt;  opacity: 1.000000" xlink:href="#m0305eeba35459913353b7b808f2b84a1" x="164.595395" y="357.304879"/>
<use style="fill: #000000; stroke: #000000; stroke-width: 0.500000; stroke-linejoin: round; stroke-linecap: butt;  opacity: 1.000000" xlink:href="#m0305eeba35459913353b7b808f2b84a1" x="180.503289" y="337.262244"/>
<use style="fill: #000000; stroke: #000000; stroke-width: 0.500000; stroke-linejoin: round; stroke-linecap: butt;  opacity: 1.000000" xlink:href="#m0305eeba35459913353b7b808f2b84a1" x="196.411184" y="317.294966"/>
<use style="fill: #000000; stroke: #000000; stroke-width: 0.500000; stroke-linejoin: round; stroke-linecap: butt;  opacity: 1.000000" xlink:href="#m0305eeba35459913353b7b808f2b84a1" x="212.319079" y="310.643203"/>
<use style="fill: #000000; stroke: #000000; stroke-width: 0.500000; stroke-linejoin: round; stroke-linecap: butt;  opacity: 1.000000" xlink:href="#m0305eeba35459913353b7b808f2b84a1" x="228.226974" y="290.778930"/>
<use style="fill: #000000; stroke: #000000; stroke-width: 0.500000; stroke-linejoin: round; stroke-linecap: butt;  opacity: 1.000000" xlink:href="#m0305eeba35459913353b7b808f2b84a1" x="244.134868" y="270.959186"/>
<use style="fill: #000000; stroke: #000000; stroke-width: 0.500000; stroke-linejoin: round; stroke-linecap: butt;  opacity: 1.000000" xlink:href="#m0305eeba35459913353b7b808f2b84a1" x="260.042763" y="251.187642"/>
<use style="fill: #000000; stroke: #000000; stroke-width: 0.500000; stroke-linejoin: round; stroke-linecap: butt;  opacity: 1.000000" xlink:href="#m0305eeba35459913353b7b808f2b84a1" x="275.950658" y="231.471392"/>
<use style="fill: #000000; stroke: #000000; stroke-width: 0.500000; stroke-linejoin: round; stroke-linecap: butt;  opacity: 1.000000" xlink:href="#m0305eeba35459913353b7b808f2b84a1" x="291.858553" y="211.752207"/>
<use style="fill: #000000; stroke: #000000; stroke-width: 0.500000; stroke-linejoin: round; stroke-linecap: butt;  opacity: 1.000000" xlink:href="#m0305eeba35459913353b7b808f2b84a1" x="307.766447" y="202.372406"/>
<use style="fill: #000000; stroke: #000000; stroke-width: 0.500000; stroke-linejoin: round; stroke-linecap: butt;  opacity: 1.000000" xlink:href="#m0305eeba35459913353b7b808f2b84a1" x="323.674342" y="198.168292"/>
<use style="fill: #000000; stroke: #000000; stroke-width: 0.500000; stroke-linejoin: round; stroke-linecap: butt;  opacity: 1.000000" xlink:href="#m0305eeba35459913353b7b808f2b84a1" x="339.582237" y="178.600311"/>
<use style="fill: #000000; stroke: #000000; stroke-width: 0.500000; stroke-linejoin: round; stroke-linecap: butt;  opacity: 1.000000" xlink:href="#m0305eeba35459913353b7b808f2b84a1" x="355.490132" y="159.082242"/>
<use style="fill: #000000; stroke: #000000; stroke-width: 0.500000; stroke-linejoin: round; stroke-linecap: butt;  opacity: 1.000000" xlink:href="#m0305eeba35459913353b7b808f2b84a1" x="371.398026" y="139.572247"/>
<use style="fill: #000000; stroke: #000000; stroke-width: 0.500000; stroke-linejoin: round; stroke-linecap: butt;  opacity: 1.000000" xlink:href="#m0305eeba35459913353b7b808f2b84a1" x="387.305921" y="120.073996"/>
<use style="fill: #000000; stroke: #000000; stroke-width: 0.500000; stroke-linejoin: round; stroke-linecap: butt;  opacity: 1.000000" xlink:href="#m0305eeba35459913353b7b808f2b84a1" x="403.213816" y="100.791541"/>
<use style="fill: #000000; stroke: #000000; stroke-width: 0.500000; stroke-linejoin: round; stroke-linecap: butt;  opacity: 1.000000" xlink:href="#m0305eeba35459913353b7b808f2b84a1" x="419.121711" y="92.955100"/>
<use style="fill: #000000; stroke: #000000; stroke-width: 0.500000; stroke-linejoin: round; stroke-linecap: butt;  opacity: 1.000000" xlink:href="#m0305eeba35459913353b7b808f2b84a1" x="435.029605" y="78.298320"/>
<use style="fill: #000000; stroke: #000000; stroke-width: 0.500000; stroke-linejoin: round; stroke-linecap: butt;  opacity: 1.000000" xlink:href="#m0305eeba35459913353b7b808f2b84a1" x="450.937500" y="59.012929"/>
</g></g>
<g id="line2d2">
<g clip-path="url(#pc3c5e41676658680e7b95047b5791c8e)"><use style="fill: #ff0000; stroke: #ff0000; stroke-width: 0.500000; stroke-linejoin: round; stroke-linecap: butt;  opacity: 1.000000" xlink:href="#m0305eeba35459913353b7b808f2b84a1" x="148.687500" y="257.319243"/>
<use style="fill: #ff0000; stroke: #ff0000; stroke-width: 0.500000; stroke-linejoin: round; stroke-linecap: butt;  opacity: 1.000000" xlink:href="#m0305eeba35459913353b7b808f2b84a1" x="164.595395" y="253.524946"/>
<use style="fill: #ff0000; stroke: #ff0000; stroke-width: 0.500000; stroke-linejoin: round; stroke-linecap: butt;  opacity: 1.000000" xlink:href="#m0305eeba35459913353b7b808f2b84a1" x="180.503289" y="247.463810"/>
<use style="fill: #ff0000; stroke: #ff0000; stroke-width: 0.500000; stroke-linejoin: round; stroke-linecap: butt;  opacity: 1.000000" xlink:href="#m0305eeba35459913353b7b808f2b84a1" x="196.411184" y="241.413438"/>
<use style="fill: #ff0000; stroke: #ff0000; stroke-width: 0.500000; stroke-linejoin: round; stroke-linecap: butt;  opacity: 1.000000" xlink:href="#m0305eeba35459913353b7b808f2b84a1" x="212.319079" y="235.103230"/>
<use style="fill: #ff0000; stroke: #ff0000; stroke-width: 0.500000; stroke-linejoin: round; stroke-linecap: butt;  opacity: 1.000000" xlink:href="#m0305eeba35459913353b7b808f2b84a1" x="228.226974" y="229.057997"/>
<use style="fill: #ff0000; stroke: #ff0000; stroke-width: 0.500000; stroke-linejoin: round; stroke-linecap: butt;  opacity: 1.000000" xlink:href="#m0305eeba35459913353b7b808f2b84a1" x="244.134868" y="223.018635"/>
<use style="fill: #ff0000; stroke: #ff0000; stroke-width: 0.500000; stroke-linejoin: round; stroke-linecap: butt;  opacity: 1.000000" xlink:href="#m0305eeba35459913353b7b808f2b84a1" x="260.042763" y="216.993465"/>
<use style="fill: #ff0000; stroke: #ff0000; stroke-width: 0.500000; stroke-linejoin: round; stroke-linecap: butt;  opacity: 1.000000" xlink:href="#m0305eeba35459913353b7b808f2b84a1" x="275.950658" y="210.966092"/>
<use style="fill: #ff0000; stroke: #ff0000; stroke-width: 0.500000; stroke-linejoin: round; stroke-linecap: butt;  opacity: 1.000000" xlink:href="#m0305eeba35459913353b7b808f2b84a1" x="291.858553" y="204.943612"/>
<use style="fill: #ff0000; stroke: #ff0000; stroke-width: 0.500000; stroke-linejoin: round; stroke-linecap: butt;  opacity: 1.000000" xlink:href="#m0305eeba35459913353b7b808f2b84a1" x="307.766447" y="201.291712"/>
<use style="fill: #ff0000; stroke: #ff0000; stroke-width: 0.500000; stroke-linejoin: round; stroke-linecap: butt;  opacity: 1.000000" xlink:href="#m0305eeba35459913353b7b808f2b84a1" x="323.674342" y="211.022365"/>
<use style="fill: #ff0000; stroke: #ff0000; stroke-width: 0.500000; stroke-linejoin: round; stroke-linecap: butt;  opacity: 1.000000" xlink:href="#m0305eeba35459913353b7b808f2b84a1" x="339.582237" y="205.016768"/>
<use style="fill: #ff0000; stroke: #ff0000; stroke-width: 0.500000; stroke-linejoin: round; stroke-linecap: butt;  opacity: 1.000000" xlink:href="#m0305eeba35459913353b7b808f2b84a1" x="355.490132" y="199.016064"/>
<use style="fill: #ff0000; stroke: #ff0000; stroke-width: 0.500000; stroke-linejoin: round; stroke-linecap: butt;  opacity: 1.000000" xlink:href="#m0305eeba35459913353b7b808f2b84a1" x="371.398026" y="193.006552"/>
<use style="fill: #ff0000; stroke: #ff0000; stroke-width: 0.500000; stroke-linejoin: round; stroke-linecap: butt;  opacity: 1.000000" xlink:href="#m0305eeba35459913353b7b808f2b84a1" x="387.305921" y="186.996795"/>
<use style="fill: #ff0000; stroke: #ff0000; stroke-width: 0.500000; stroke-linejoin: round; stroke-linecap: butt;  opacity: 1.000000" xlink:href="#m0305eeba35459913353b7b808f2b84a1" x="403.213816" y="185.047533"/>
<use style="fill: #ff0000; stroke: #ff0000; stroke-width: 0.500000; stroke-linejoin: round; stroke-linecap: butt;  opacity: 1.000000" xlink:href="#m0305eeba35459913353b7b808f2b84a1" x="419.121711" y="179.540322"/>
<use style="fill: #ff0000; stroke: #ff0000; stroke-width: 0.500000; stroke-linejoin: round; stroke-linecap: butt;  opacity: 1.000000" xlink:href="#m0305eeba35459913353b7b808f2b84a1" x="435.029605" y="174.125595"/>
<use style="fill: #ff0000; stroke: #ff0000; stroke-width: 0.500000; stroke-linejoin: round; stroke-linecap: butt;  opacity: 1.000000" xlink:href="#m0305eeba35459913353b7b808f2b84a1" x="450.937500" y="168.153028"/>
</g></g>
<g id="line2d3">
<path style="fill: none; stroke: #0000ff; stroke-width: 1.000000; stroke-linejoin: round; stroke-linecap: square;  opacity: 1.000000" clip-path="url(#pc3c5e41676658680e7b95047b5791c8e)" d="M133.575000 387.826052L140.360204 380.510708L147.145408 373.211763
L153.930612 365.928986L160.715816 358.662145L167.501020 351.411008
L174.286224 344.175344L181.071429 336.954922L187.856633 329.749510
L194.641837 322.558876L201.427041 315.382789L208.212245 308.221017
L214.997449 301.073330L221.782653 293.939494L228.567857 286.819279
L235.353061 279.712454L242.138265 272.618786L248.923469 265.538045
L255.708673 258.469998L262.493878 251.414414L269.279082 244.371062
L276.064286 237.339710L282.849490 230.320126L289.634694 223.312080
L296.419898 216.315339L303.205102 209.329672L309.990306 202.354847
L316.775510 195.390633L323.560714 188.436799L330.345918 181.493112
L337.131122 174.559342L343.916327 167.635257L350.701531 160.720625
L357.486735 153.815214L364.271939 146.918794L371.057143 140.031132
L377.842347 133.151998L384.627551 126.281159L391.412755 119.418384
L398.197959 112.563442L404.983163 105.716101L411.768367 98.876129
L418.553571 92.043295L425.338776 85.217368L432.123980 78.398115
L438.909184 71.585306L445.694388 64.778709L452.479592 57.978092
L459.264796 51.183224L466.050000 44.393873"/>
</g>
<g id="line2d4">
<path style="fill: none; stroke: #008000; stroke-width: 1.000000; stroke-linejoin: round; stroke-linecap: square;  opacity: 1.000000" clip-path="url(#pc3c5e41676658680e7b95047b5791c8e)" d="M133.575000 269.662649L140.360204 265.642314L147.145408 261.804832
L153.930612 258.143386L160.715816 254.651156L167.501020 251.321325
L174.286224 248.147076L181.071429 245.121589L187.856633 242.238048
L194.641837 239.489635L201.427041 236.869531L208.212245 234.370919
L214.997449 231.986980L221.782653 229.710897L228.567857 227.535853
L235.353061 225.455028L242.138265 223.461605L248.923469 221.548766
L255.708673 219.709693L262.493878 217.937569L269.279082 216.225575
L276.064286 214.566894L282.849490 212.954707L289.634694 211.382197
L296.419898 209.842546L303.205102 208.328935L309.990306 206.834548
L316.775510 205.352565L323.560714 203.876170L330.345918 202.398543
L337.131122 200.912868L343.916327 199.412326L350.701531 197.890100
L357.486735 196.339371L364.271939 194.753322L371.057143 193.125135
L377.842347 191.447991L384.627551 189.715073L391.412755 187.919563
L398.197959 186.054643L404.983163 184.113495L411.768367 182.089302
L418.553571 179.975244L425.338776 177.764505L432.123980 175.450267
L438.909184 173.025711L445.694388 170.484020L452.479592 167.818375
L459.264796 165.021959L466.050000 162.087955"/>
</g>
<g id="line2d5">
<path style="fill: none; stroke: #0000ff; stroke-width: 1.000000; stroke-linejoin: round; stroke-linecap: butt; stroke-dasharray: 6.000000,6.000000; stroke-dashoffset: 0.000000; opacity: 1.000000" clip-path="url(#pc3c5e41676658680e7b95047b5791c8e)" d="M299.812500 396.900000L299.812500 44.100000"/>
</g>
<g id="line2d6">
<path style="fill: none; stroke: #0000ff; stroke-width: 1.000000; stroke-linejoin: round; stroke-linecap: butt; stroke-dasharray: 6.000000,6.000000; stroke-dashoffset: 0.000000; opacity: 1.000000" clip-path="url(#pc3c5e41676658680e7b95047b5791c8e)" d="M73.125000 200.900000L526.500000 200.900000"/>
</g>
<g id="matplotlib.axis1">
<g id="xtick1">
<g id="line2d7">
<defs><path id="m30e32995789d870ad79a2e54c91cf9c6" d="M0.000000 0.000000L0.000000 -4.000000"/></defs>
<g ><use style="fill: none; stroke: #000000; stroke-width: 0.500000; stroke-linejoin: round; stroke-linecap: butt;  opacity: 1.000000" xlink:href="#m30e32995789d870ad79a2e54c91cf9c6" x="73.125000" y="396.900000"/>
</g></g>
<g id="line2d8">
<defs><path id="m9281cae24120827b11d5ea8a7ad3e96b" d="M0.000000 0.000000L0.000000 4.000000"/></defs>
<g ><use style="fill: none; stroke: #000000; stroke-width: 0.500000; stroke-linejoin: round; stroke-linecap: butt;  opacity: 1.000000" xlink:href="#m9281cae24120827b11d5ea8a7ad3e96b" x="73.125000" y="44.100000"/>
</g></g>
<g id="text1">
<defs>
<path id="c_6a8d56c819c37117ab4cf023bec22a5a" d="M10.593750 -35.500000l62.593750 0.000000l0.000000 8.296875l-62.593750 0.000000z"/>
<path id="c_7a2040fe3b94fcd41d0a72c84e93b115" d="M31.781250 -66.406250q-7.609375 0.000000 -11.453125 7.500000q-3.828125 7.484375 -3.828125 22.531250q0.000000 14.984375 3.828125 22.484375q3.843750 7.500000 11.453125 7.500000q7.671875 0.000000 11.500000 -7.500000q3.843750 -7.500000 3.843750 -22.484375q0.000000 -15.046875 -3.843750 -22.531250q-3.828125 -7.500000 -11.500000 -7.500000M31.781250 -74.218750q12.265625 0.000000 18.734375 9.703125q6.468750 9.687500 6.468750 28.140625q0.000000 18.406250 -6.468750 28.109375q-6.468750 9.687500 -18.734375 9.687500q-12.250000 0.000000 -18.718750 -9.687500q-6.468750 -9.703125 -6.468750 -28.109375q0.000000 -18.453125 6.468750 -28.140625q6.468750 -9.703125 18.718750 -9.703125"/>
<path id="c_ed3e21196fb739f392806f09ca0594ef" d="M10.687500 -12.406250l10.312500 0.000000l0.000000 12.406250l-10.312500 0.000000z"/>
<path id="c_3dcfa38a02242cb63ec6726c6e70be7a" d="M40.578125 -39.312500q7.078125 1.515625 11.046875 6.312500q3.984375 4.781250 3.984375 11.812500q0.000000 10.781250 -7.421875 16.703125q-7.421875 5.906250 -21.093750 5.906250q-4.578125 0.000000 -9.437500 -0.906250q-4.859375 -0.906250 -10.031250 -2.718750l0.000000 -9.515625q4.093750 2.390625 8.968750 3.609375q4.890625 1.218750 10.218750 1.218750q9.265625 0.000000 14.125000 -3.656250q4.859375 -3.656250 4.859375 -10.640625q0.000000 -6.453125 -4.515625 -10.078125q-4.515625 -3.640625 -12.562500 -3.640625l-8.500000 0.000000l0.000000 -8.109375l8.890625 0.000000q7.265625 0.000000 11.125000 -2.906250q3.859375 -2.906250 3.859375 -8.375000q0.000000 -5.609375 -3.984375 -8.609375q-3.968750 -3.015625 -11.390625 -3.015625q-4.062500 0.000000 -8.703125 0.890625q-4.640625 0.875000 -10.203125 2.718750l0.000000 -8.781250q5.625000 -1.562500 10.531250 -2.343750q4.906250 -0.781250 9.250000 -0.781250q11.234375 0.000000 17.765625 5.109375q6.546875 5.093750 6.546875 13.781250q0.000000 6.062500 -3.468750 10.234375q-3.468750 4.171875 -9.859375 5.781250"/>
</defs>
<g style="fill: #000000; opacity: 1.000000" transform="translate(52.023438,409.806250)scale(0.120000)">
<use xlink:href="#c_6a8d56c819c37117ab4cf023bec22a5a"/>
<use xlink:href="#c_7a2040fe3b94fcd41d0a72c84e93b115" x="83.789062"/>
<use xlink:href="#c_ed3e21196fb739f392806f09ca0594ef" x="147.412109"/>
<use xlink:href="#c_7a2040fe3b94fcd41d0a72c84e93b115" x="179.199219"/>
<use xlink:href="#c_7a2040fe3b94fcd41d0a72c84e93b115" x="242.822266"/>
<use xlink:href="#c_3dcfa38a02242cb63ec6726c6e70be7a" x="306.445312"/>
</g>
</g>
</g>
<g id="xtick2">
<g id="line2d9">
<g ><use style="fill: none; stroke: #000000; stroke-width: 0.500000; stroke-linejoin: round; stroke-linecap: butt;  opacity: 1.000000" xlink:href="#m30e32995789d870ad79a2e54c91cf9c6" x="148.687500" y="396.900000"/>
</g></g>
<g id="line2d10">
<g ><use style="fill: none; stroke: #000000; stroke-width: 0.500000; stroke-linejoin: round; stroke-linecap: butt;  opacity: 1.000000" xlink:href="#m9281cae24120827b11d5ea8a7ad3e96b" x="148.687500" y="44.100000"/>
</g></g>
<g id="text2">
<defs>
<path id="c_ed3f3ed3ebfbd18bcb9c012009a68ad1" d="M19.187500 -8.296875l34.421875 0.000000l0.000000 8.296875l-46.281250 0.000000l0.000000 -8.296875q5.609375 -5.812500 15.296875 -15.593750q9.703125 -9.796875 12.187500 -12.640625q4.734375 -5.312500 6.609375 -9.000000q1.890625 -3.687500 1.890625 -7.250000q0.000000 -5.812500 -4.078125 -9.468750q-4.078125 -3.671875 -10.625000 -3.671875q-4.640625 0.000000 -9.796875 1.609375q-5.140625 1.609375 -11.000000 4.890625l0.000000 -9.968750q5.953125 -2.390625 11.125000 -3.609375q5.187500 -1.218750 9.484375 -1.218750q11.328125 0.000000 18.062500 5.671875q6.734375 5.656250 6.734375 15.125000q0.000000 4.500000 -1.687500 8.531250q-1.671875 4.015625 -6.125000 9.484375q-1.218750 1.421875 -7.765625 8.187500q-6.531250 6.765625 -18.453125 18.921875"/>
</defs>
<g style="fill: #000000; opacity: 1.000000" transform="translate(127.703125,409.806250)scale(0.120000)">
<use xlink:href="#c_6a8d56c819c37117ab4cf023bec22a5a"/>
<use xlink:href="#c_7a2040fe3b94fcd41d0a72c84e93b115" x="83.789062"/>
<use xlink:href="#c_ed3e21196fb739f392806f09ca0594ef" x="147.412109"/>
<use xlink:href="#c_7a2040fe3b94fcd41d0a72c84e93b115" x="179.199219"/>
<use xlink:href="#c_7a2040fe3b94fcd41d0a72c84e93b115" x="242.822266"/>
<use xlink:href="#c_ed3f3ed3ebfbd18bcb9c012009a68ad1" x="306.445312"/>
</g>
</g>
</g>
<g id="xtick3">
<g id="line2d11">
<g ><use style="fill: none; stroke: #000000; stroke-width: 0.500000; stroke-linejoin: round; stroke-linecap: butt;  opacity: 1.000000" xlink:href="#m30e32995789d870ad79a2e54c91cf9c6" x="224.250000" y="396.900000"/>
</g></g>
<g id="line2d12">
<g ><use style="fill: none; stroke: #000000; stroke-width: 0.500000; stroke-linejoin: round; stroke-linecap: butt;  opacity: 1.000000" xlink:href="#m9281cae24120827b11d5ea8a7ad3e96b" x="224.250000" y="44.100000"/>
</g></g>
<g id="text3">
<defs>
<path id="c_42baa63129a918535c52adb20d687ea7" d="M12.406250 -8.296875l16.109375 0.000000l0.000000 -55.625000l-17.531250 3.515625l0.000000 -8.984375l17.437500 -3.515625l9.859375 0.000000l0.000000 64.609375l16.109375 0.000000l0.000000 8.296875l-41.984375 0.000000z"/>
</defs>
<g style="fill: #000000; opacity: 1.000000" transform="translate(203.218750,409.806250)scale(0.120000)">
<use xlink:href="#c_6a8d56c819c37117ab4cf023bec22a5a"/>
<use xlink:href="#c_7a2040fe3b94fcd41d0a72c84e93b115" x="83.789062"/>
<use xlink:href="#c_ed3e21196fb739f392806f09ca0594ef" x="147.412109"/>
<use xlink:href="#c_7a2040fe3b94fcd41d0a72c84e93b115" x="179.199219"/>
<use xlink:href="#c_7a2040fe3b94fcd41d0a72c84e93b115" x="242.822266"/>
<use xlink:href="#c_42baa63129a918535c52adb20d687ea7" x="306.445312"/>
</g>
</g>
</g>
<g id="xtick4">
<g id="line2d13">
<g ><use style="fill: none; stroke: #000000; stroke-width: 0.500000; stroke-linejoin: round; stroke-linecap: butt;  opacity: 1.000000" xlink:href="#m30e32995789d870ad79a2e54c91cf9c6" x="299.812500" y="396.900000"/>
</g></g>
<g id="line2d14">
<g ><use style="fill: none; stroke: #000000; stroke-width: 0.500000; stroke-linejoin: round; stroke-linecap: butt;  opacity: 1.000000" xlink:href="#m9281cae24120827b11d5ea8a7ad3e96b" x="299.812500" y="44.100000"/>
</g></g>
<g id="text4">
<g style="fill: #000000; opacity: 1.000000" transform="translate(283.421875,409.806250)scale(0.120000)">
<use xlink:href="#c_7a2040fe3b94fcd41d0a72c84e93b115"/>
<use xlink:href="#c_ed3e21196fb739f392806f09ca0594ef" x="63.623047"/>
<use xlink:href="#c_7a2040fe3b94fcd41d0a72c84e93b115" x="95.410156"/>
<use xlink:href="#c_7a2040fe3b94fcd41d0a72c84e93b115" x="159.033203"/>
<use xlink:href="#c_7a2040fe3b94fcd41d0a72c84e93b115" x="222.656250"/>
</g>
</g>
</g>
<g id="xtick5">
<g id="line2d15">
<g ><use style="fill: none; stroke: #000000; stroke-width: 0.500000; stroke-linejoin: round; stroke-linecap: butt;  opacity: 1.000000" xlink:href="#m30e32995789d870ad79a2e54c91cf9c6" x="375.375000" y="396.900000"/>
</g></g>
<g id="line2d16">
<g ><use style="fill: none; stroke: #000000; stroke-width: 0.500000; stroke-linejoin: round; stroke-linecap: butt;  opacity: 1.000000" xlink:href="#m9281cae24120827b11d5ea8a7ad3e96b" x="375.375000" y="44.100000"/>
</g></g>
<g id="text5">
<g style="fill: #000000; opacity: 1.000000" transform="translate(359.140625,409.806250)scale(0.120000)">
<use xlink:href="#c_7a2040fe3b94fcd41d0a72c84e93b115"/>
<use xlink:href="#c_ed3e21196fb739f392806f09ca0594ef" x="63.623047"/>
<use xlink:href="#c_7a2040fe3b94fcd41d0a72c84e93b115" x="95.410156"/>
<use xlink:href="#c_7a2040fe3b94fcd41d0a72c84e93b115" x="159.033203"/>
<use xlink:href="#c_42baa63129a918535c52adb20d687ea7" x="222.656250"/>
</g>
</g>
</g>
<g id="xtick6">
<g id="line2d17">
<g ><use style="fill: none; stroke: #000000; stroke-width: 0.500000; stroke-linejoin: round; stroke-linecap: butt;  opacity: 1.000000" xlink:href="#m30e32995789d870ad79a2e54c91cf9c6" x="450.937500" y="396.900000"/>
</g></g>
<g id="line2d18">
<g ><use style="fill: none; stroke: #000000; stroke-width: 0.500000; stroke-linejoin: round; stroke-linecap: butt;  opacity: 1.000000" xlink:href="#m9281cae24120827b11d5ea8a7ad3e96b" x="450.937500" y="44.100000"/>
</g></g>
<g id="text6">
<g style="fill: #000000; opacity: 1.000000" transform="translate(434.750000,409.806250)scale(0.120000)">
<use xlink:href="#c_7a2040fe3b94fcd41d0a72c84e93b115"/>
<use xlink:href="#c_ed3e21196fb739f392806f09ca0594ef" x="63.623047"/>
<use xlink:href="#c_7a2040fe3b94fcd41d0a72c84e93b115" x="95.410156"/>
<use xlink:href="#c_7a2040fe3b94fcd41d0a72c84e93b115" x="159.033203"/>
<use xlink:href="#c_ed3f3ed3ebfbd18bcb9c012009a68ad1" x="222.656250"/>
</g>
</g>
</g>
<g id="xtick7">
<g id="line2d19">
<g ><use style="fill: none; stroke: #000000; stroke-width: 0.500000; stroke-linejoin: round; stroke-linecap: butt;  opacity: 1.000000" xlink:href="#m30e32995789d870ad79a2e54c91cf9c6" x="526.500000" y="396.900000"/>
</g></g>
<g id="line2d20">
<g ><use style="fill: none; stroke: #000000; stroke-width: 0.500000; stroke-linejoin: round; stroke-linecap: butt;  opacity: 1.000000" xlink:href="#m9281cae24120827b11d5ea8a7ad3e96b" x="526.500000" y="44.100000"/>
</g></g>
<g id="text7">
<g style="fill: #000000; opacity: 1.000000" transform="translate(510.195312,409.806250)scale(0.120000)">
<use xlink:href="#c_7a2040fe3b94fcd41d0a72c84e93b115"/>
<use xlink:href="#c_ed3e21196fb739f392806f09ca0594ef" x="63.623047"/>
<use xlink:href="#c_7a2040fe3b94fcd41d0a72c84e93b115" x="95.410156"/>
<use xlink:href="#c_7a2040fe3b94fcd41d0a72c84e93b115" x="159.033203"/>
<use xlink:href="#c_3dcfa38a02242cb63ec6726c6e70be7a" x="222.656250"/>
</g>
</g>
</g>
</g>
<g id="matplotlib.axis2">
<g id="ytick1">
<g id="line2d21">
<defs><path id="m3400efa6b1638b3fea9e19e898273957" d="M0.000000 0.000000L4.000000 0.000000"/></defs>
<g ><use style="fill: none; stroke: #000000; stroke-width: 0.500000; stroke-linejoin: round; stroke-linecap: butt;  opacity: 1.000000" xlink:href="#m3400efa6b1638b3fea9e19e898273957" x="73.125000" y="396.900000"/>
</g></g>
<g id="line2d22">
<defs><path id="m20b58b2501143cb5e0a5e8f1ef6f1643" d="M0.000000 0.000000L-4.000000 0.000000"/></defs>
<g ><use style="fill: none; stroke: #000000; stroke-width: 0.500000; stroke-linejoin: round; stroke-linecap: butt;  opacity: 1.000000" xlink:href="#m20b58b2501143cb5e0a5e8f1ef6f1643" x="526.500000" y="396.900000"/>
</g></g>
<g id="text8">
<defs>
<path id="c_1260a2df50f305f3db244e29828f968e" d="M10.796875 -72.906250l38.718750 0.000000l0.000000 8.312500l-29.687500 0.000000l0.000000 17.859375q2.140625 -0.734375 4.281250 -1.093750q2.156250 -0.359375 4.312500 -0.359375q12.203125 0.000000 19.328125 6.687500q7.140625 6.687500 7.140625 18.109375q0.000000 11.765625 -7.328125 18.296875q-7.328125 6.515625 -20.656250 6.515625q-4.593750 0.000000 -9.359375 -0.781250q-4.750000 -0.781250 -9.828125 -2.343750l0.000000 -9.921875q4.390625 2.390625 9.078125 3.562500q4.687500 1.171875 9.906250 1.171875q8.453125 0.000000 13.375000 -4.437500q4.937500 -4.437500 4.937500 -12.062500q0.000000 -7.609375 -4.937500 -12.046875q-4.921875 -4.453125 -13.375000 -4.453125q-3.953125 0.000000 -7.890625 0.875000q-3.921875 0.875000 -8.015625 2.734375z"/>
</defs>
<g style="fill: #000000; opacity: 1.000000" transform="translate(27.000000,401.267188)scale(0.120000)">
<use xlink:href="#c_6a8d56c819c37117ab4cf023bec22a5a"/>
<use xlink:href="#c_7a2040fe3b94fcd41d0a72c84e93b115" x="83.789062"/>
<use xlink:href="#c_ed3e21196fb739f392806f09ca0594ef" x="147.412109"/>
<use xlink:href="#c_7a2040fe3b94fcd41d0a72c84e93b115" x="179.199219"/>
<use xlink:href="#c_7a2040fe3b94fcd41d0a72c84e93b115" x="242.822266"/>
<use xlink:href="#c_1260a2df50f305f3db244e29828f968e" x="306.445312"/>
</g>
</g>
</g>
<g id="ytick2">
<g id="line2d23">
<g ><use style="fill: none; stroke: #000000; stroke-width: 0.500000; stroke-linejoin: round; stroke-linecap: butt;  opacity: 1.000000" xlink:href="#m3400efa6b1638b3fea9e19e898273957" x="73.125000" y="357.700000"/>
</g></g>
<g id="line2d24">
<g ><use style="fill: none; stroke: #000000; stroke-width: 0.500000; stroke-linejoin: round; stroke-linecap: butt;  opacity: 1.000000" xlink:href="#m20b58b2501143cb5e0a5e8f1ef6f1643" x="526.500000" y="357.700000"/>
</g></g>
<g id="text9">
<defs>
<path id="c_a0416418d96557a09b8c1332d34883ba" d="M37.796875 -64.312500l-24.906250 38.921875l24.906250 0.000000zM35.203125 -72.906250l12.406250 0.000000l0.000000 47.515625l10.406250 0.000000l0.000000 8.203125l-10.406250 0.000000l0.000000 17.187500l-9.812500 0.000000l0.000000 -17.187500l-32.906250 0.000000l0.000000 -9.515625z"/>
</defs>
<g style="fill: #000000; opacity: 1.000000" transform="translate(26.625000,362.067188)scale(0.120000)">
<use xlink:href="#c_6a8d56c819c37117ab4cf023bec22a5a"/>
<use xlink:href="#c_7a2040fe3b94fcd41d0a72c84e93b115" x="83.789062"/>
<use xlink:href="#c_ed3e21196fb739f392806f09ca0594ef" x="147.412109"/>
<use xlink:href="#c_7a2040fe3b94fcd41d0a72c84e93b115" x="179.199219"/>
<use xlink:href="#c_7a2040fe3b94fcd41d0a72c84e93b115" x="242.822266"/>
<use xlink:href="#c_a0416418d96557a09b8c1332d34883ba" x="306.445312"/>
</g>
</g>
</g>
<g id="ytick3">
<g id="line2d25">
<g ><use style="fill: none; stroke: #000000; stroke-width: 0.500000; stroke-linejoin: round; stroke-linecap: butt;  opacity: 1.000000" xlink:href="#m3400efa6b1638b3fea9e19e898273957" x="73.125000" y="318.500000"/>
</g></g>
<g id="line2d26">
<g ><use style="fill: none; stroke: #000000; stroke-width: 0.500000; stroke-linejoin: round; stroke-linecap: butt;  opacity: 1.000000" xlink:href="#m20b58b2501143cb5e0a5e8f1ef6f1643" x="526.500000" y="318.500000"/>
</g></g>
<g id="text10">
<g style="fill: #000000; opacity: 1.000000" transform="translate(26.921875,322.867188)scale(0.120000)">
<use xlink:href="#c_6a8d56c819c37117ab4cf023bec22a5a"/>
<use xlink:href="#c_7a2040fe3b94fcd41d0a72c84e93b115" x="83.789062"/>
<use xlink:href="#c_ed3e21196fb739f392806f09ca0594ef" x="147.412109"/>
<use xlink:href="#c_7a2040fe3b94fcd41d0a72c84e93b115" x="179.199219"/>
<use xlink:href="#c_7a2040fe3b94fcd41d0a72c84e93b115" x="242.822266"/>
<use xlink:href="#c_3dcfa38a02242cb63ec6726c6e70be7a" x="306.445312"/>
</g>
</g>
</g>
<g id="ytick4">
<g id="line2d27">
<g ><use style="fill: none; stroke: #000000; stroke-width: 0.500000; stroke-linejoin: round; stroke-linecap: butt;  opacity: 1.000000" xlink:href="#m3400efa6b1638b3fea9e19e898273957" x="73.125000" y="279.300000"/>
</g></g>
<g id="line2d28">
<g ><use style="fill: none; stroke: #000000; stroke-width: 0.500000; stroke-linejoin: round; stroke-linecap: butt;  opacity: 1.000000" xlink:href="#m20b58b2501143cb5e0a5e8f1ef6f1643" x="526.500000" y="279.300000"/>
</g></g>
<g id="text11">
<g style="fill: #000000; opacity: 1.000000" transform="translate(27.156250,283.667188)scale(0.120000)">
<use xlink:href="#c_6a8d56c819c37117ab4cf023bec22a5a"/>
<use xlink:href="#c_7a2040fe3b94fcd41d0a72c84e93b115" x="83.789062"/>
<use xlink:href="#c_ed3e21196fb739f392806f09ca0594ef" x="147.412109"/>
<use xlink:href="#c_7a2040fe3b94fcd41d0a72c84e93b115" x="179.199219"/>
<use xlink:href="#c_7a2040fe3b94fcd41d0a72c84e93b115" x="242.822266"/>
<use xlink:href="#c_ed3f3ed3ebfbd18bcb9c012009a68ad1" x="306.445312"/>
</g>
</g>
</g>
<g id="ytick5">
<g id="line2d29">
<g ><use style="fill: none; stroke: #000000; stroke-width: 0.500000; stroke-linejoin: round; stroke-linecap: butt;  opacity: 1.000000" xlink:href="#m3400efa6b1638b3fea9e19e898273957" x="73.125000" y="240.100000"/>
</g></g>
<g id="line2d30">
<g ><use style="fill: none; stroke: #000000; stroke-width: 0.500000; stroke-linejoin: round; stroke-linecap: butt;  opacity: 1.000000" xlink:href="#m20b58b2501143cb5e0a5e8f1ef6f1643" x="526.500000" y="240.100000"/>
</g></g>
<g id="text12">
<g style="fill: #000000; opacity: 1.000000" transform="translate(27.062500,244.467188)scale(0.120000)">
<use xlink:href="#c_6a8d56c819c37117ab4cf023bec22a5a"/>
<use xlink:href="#c_7a2040fe3b94fcd41d0a72c84e93b115" x="83.789062"/>
<use xlink:href="#c_ed3e21196fb739f392806f09ca0594ef" x="147.412109"/>
<use xlink:href="#c_7a2040fe3b94fcd41d0a72c84e93b115" x="179.199219"/>
<use xlink:href="#c_7a2040fe3b94fcd41d0a72c84e93b115" x="242.822266"/>
<use xlink:href="#c_42baa63129a918535c52adb20d687ea7" x="306.445312"/>
</g>
</g>
</g>
<g id="ytick6">
<g id="line2d31">
<g ><use style="fill: none; stroke: #000000; stroke-width: 0.500000; stroke-linejoin: round; stroke-linecap: butt;  opacity: 1.000000" xlink:href="#m3400efa6b1638b3fea9e19e898273957" x="73.125000" y="200.900000"/>
</g></g>
<g id="line2d32">
<g ><use style="fill: none; stroke: #000000; stroke-width: 0.500000; stroke-linejoin: round; stroke-linecap: butt;  opacity: 1.000000" xlink:href="#m20b58b2501143cb5e0a5e8f1ef6f1643" x="526.500000" y="200.900000"/>
</g></g>
<g id="text13">
<g style="fill: #000000; opacity: 1.000000" transform="translate(36.343750,205.267188)scale(0.120000)">
<use xlink:href="#c_7a2040fe3b94fcd41d0a72c84e93b115"/>
<use xlink:href="#c_ed3e21196fb739f392806f09ca0594ef" x="63.623047"/>
<use xlink:href="#c_7a2040fe3b94fcd41d0a72c84e93b115" x="95.410156"/>
<use xlink:href="#c_7a2040fe3b94fcd41d0a72c84e93b115" x="159.033203"/>
<use xlink:href="#c_7a2040fe3b94fcd41d0a72c84e93b115" x="222.656250"/>
</g>
</g>
</g>
<g id="ytick7">
<g id="line2d33">
<g ><use style="fill: none; stroke: #000000; stroke-width: 0.500000; stroke-linejoin: round; stroke-linecap: butt;  opacity: 1.000000" xlink:href="#m3400efa6b1638b3fea9e19e898273957" x="73.125000" y="161.700000"/>
</g></g>
<g id="line2d34">
<g ><use style="fill: none; stroke: #000000; stroke-width: 0.500000; stroke-linejoin: round; stroke-linecap: butt;  opacity: 1.000000" xlink:href="#m20b58b2501143cb5e0a5e8f1ef6f1643" x="526.500000" y="161.700000"/>
</g></g>
<g id="text14">
<g style="fill: #000000; opacity: 1.000000" transform="translate(36.656250,166.067187)scale(0.120000)">
<use xlink:href="#c_7a2040fe3b94fcd41d0a72c84e93b115"/>
<use xlink:href="#c_ed3e21196fb739f392806f09ca0594ef" x="63.623047"/>
<use xlink:href="#c_7a2040fe3b94fcd41d0a72c84e93b115" x="95.410156"/>
<use xlink:href="#c_7a2040fe3b94fcd41d0a72c84e93b115" x="159.033203"/>
<use xlink:href="#c_42baa63129a918535c52adb20d687ea7" x="222.656250"/>
</g>
</g>
</g>
<g id="ytick8">
<g id="line2d35">
<g ><use style="fill: none; stroke: #000000; stroke-width: 0.500000; stroke-linejoin: round; stroke-linecap: butt;  opacity: 1.000000" xlink:href="#m3400efa6b1638b3fea9e19e898273957" x="73.125000" y="122.500000"/>
</g></g>
<g id="line2d36">
<g ><use style="fill: none; stroke: #000000; stroke-width: 0.500000; stroke-linejoin: round; stroke-linecap: butt;  opacity: 1.000000" xlink:href="#m20b58b2501143cb5e0a5e8f1ef6f1643" x="526.500000" y="122.500000"/>
</g></g>
<g id="text15">
<g style="fill: #000000; opacity: 1.000000" transform="translate(36.750000,126.867188)scale(0.120000)">
<use xlink:href="#c_7a2040fe3b94fcd41d0a72c84e93b115"/>
<use xlink:href="#c_ed3e21196fb739f392806f09ca0594ef" x="63.623047"/>
<use xlink:href="#c_7a2040fe3b94fcd41d0a72c84e93b115" x="95.410156"/>
<use xlink:href="#c_7a2040fe3b94fcd41d0a72c84e93b115" x="159.033203"/>
<use xlink:href="#c_ed3f3ed3ebfbd18bcb9c012009a68ad1" x="222.656250"/>
</g>
</g>
</g>
<g id="ytick9">
<g id="line2d37">
<g ><use style="fill: none; stroke: #000000; stroke-width: 0.500000; stroke-linejoin: round; stroke-linecap: butt;  opacity: 1.000000" xlink:href="#m3400efa6b1638b3fea9e19e898273957" x="73.125000" y="83.300000"/>
</g></g>
<g id="line2d38">
<g ><use style="fill: none; stroke: #000000; stroke-width: 0.500000; stroke-linejoin: round; stroke-linecap: butt;  opacity: 1.000000" xlink:href="#m20b58b2501143cb5e0a5e8f1ef6f1643" x="526.500000" y="83.300000"/>
</g></g>
<g id="text16">
<g style="fill: #000000; opacity: 1.000000" transform="translate(36.515625,87.667187)scale(0.120000)">
<use xlink:href="#c_7a2040fe3b94fcd41d0a72c84e93b115"/>
<use xlink:href="#c_ed3e21196fb739f392806f09ca0594ef" x="63.623047"/>
<use xlink:href="#c_7a2040fe3b94fcd41d0a72c84e93b115" x="95.410156"/>
<use xlink:href="#c_7a2040fe3b94fcd41d0a72c84e93b115" x="159.033203"/>
<use xlink:href="#c_3dcfa38a02242cb63ec6726c6e70be7a" x="222.656250"/>
</g>
</g>
</g>
<g id="ytick10">
<g id="line2d39">
<g ><use style="fill: none; stroke: #000000; stroke-width: 0.500000; stroke-linejoin: round; stroke-linecap: butt;  opacity: 1.000000" xlink:href="#m3400efa6b1638b3fea9e19e898273957" x="73.125000" y="44.100000"/>
</g></g>
<g id="line2d40">
<g ><use style="fill: none; stroke: #000000; stroke-width: 0.500000; stroke-linejoin: round; stroke-linecap: butt;  opacity: 1.000000" xlink:href="#m20b58b2501143cb5e0a5e8f1ef6f1643" x="526.500000" y="44.100000"/>
</g></g>
<g id="text17">
<g style="fill: #000000; opacity: 1.000000" transform="translate(36.218750,48.467187)scale(0.120000)">
<use xlink:href="#c_7a2040fe3b94fcd41d0a72c84e93b115"/>
<use xlink:href="#c_ed3e21196fb739f392806f09ca0594ef" x="63.623047"/>
<use xlink:href="#c_7a2040fe3b94fcd41d0a72c84e93b115" x="95.410156"/>
<use xlink:href="#c_7a2040fe3b94fcd41d0a72c84e93b115" x="159.033203"/>
<use xlink:href="#c_a0416418d96557a09b8c1332d34883ba" x="222.656250"/>
</g>
</g>
</g>
</g>
<g id="patch3">
<path style="fill: none; stroke: #000000; stroke-width: 1.000000; stroke-linejoin: round; stroke-linecap: square;  opacity: 1.000000"  d="M73.125000 44.100000L526.500000 44.100000"/>
</g>
<g id="patch4">
<path style="fill: none; stroke: #000000; stroke-width: 1.000000; stroke-linejoin: round; stroke-linecap: square;  opacity: 1.000000"  d="M526.500000 396.900000L526.500000 44.100000"/>
</g>
<g id="patch5">
<path style="fill: none; stroke: #000000; stroke-width: 1.000000; stroke-linejoin: round; stroke-linecap: square;  opacity: 1.000000"  d="M73.125000 396.900000L526.500000 396.900000"/>
</g>
<g id="patch6">
<path style="fill: none; stroke: #000000; stroke-width: 1.000000; stroke-linejoin: round; stroke-linecap: square;  opacity: 1.000000"  d="M73.125000 396.900000L73.125000 44.100000"/>
</g>
</g>
</g>
</svg>
